<svg xmlns="http://www.w3.org/2000/svg" xmlns:xlink="http://www.w3.org/1999/xlink" width="635pt" height="348" viewBox="0 0 635 261"><g id="graph0" class="graph" transform="scale(1 1) rotate(0) translate(4 257)"><title>g</title><polygon fill="#fff" stroke="none" points="-4 4 -4 -257 631 -257 631 4 -4 4"/><text x="586.153" y="-6.8" font-family="Times,serif" font-size="14" text-anchor="middle">reduced.dot</text><g id="node1" class="node"><title>node16</title><polygon fill="#000" stroke="none" points="229.5 -106 229.5 -126 398.5 -126 398.5 -106 229.5 -106"/><polygon fill="none" stroke="#000" points="229.5 -106 229.5 -126 398.5 -126 398.5 -106 229.5 -106"/><text x="232.16" y="-112.8" fill="#fff" font-family="Times,serif" font-size="14" font-weight="bold" text-anchor="start">(16) __primitive.value 2 i (0)</text><polygon fill="none" stroke="#000" points="229.5 -86 229.5 -106 398.5 -106 398.5 -86 229.5 -86"/><text x="265.595" y="-92.8" font-family="Times,serif" font-size="14" text-anchor="start">alt:</text><text x="286.978" y="-92.8" fill="#d3d3d3" font-family="Times,serif" font-size="14" text-anchor="start">0x101b7a9e0</text><polygon fill="none" stroke="#000" points="229.5 -66 229.5 -86 398.5 -86 398.5 -66 229.5 -66"/><text x="283.478" y="-71.8" font-family="Times,serif" font-size="14" text-anchor="start">alt_set: X0</text><polygon fill="#ff0" stroke="none" points="229.5 -46 229.5 -66 398.5 -66 398.5 -46 229.5 -46"/><polygon fill="none" stroke="#000" points="229.5 -46 229.5 -66 398.5 -66 398.5 -46 229.5 -46"/><text x="294.753" y="-51.8" font-family="Times,serif" font-size="14" text-anchor="start">val: 10</text></g><g id="node2" class="node"><title>node21</title><polygon fill="#000" stroke="none" points="8.5 -86 8.5 -106 177.5 -106 177.5 -86 8.5 -86"/><polygon fill="none" stroke="#000" points="8.5 -86 8.5 -106 177.5 -106 177.5 -86 8.5 -86"/><text x="11.16" y="-92.8" fill="#fff" font-family="Times,serif" font-size="14" font-weight="bold" text-anchor="start">(21) __primitive.value 2 i (0)</text><polygon fill="none" stroke="#000" points="8.5 -66 8.5 -86 177.5 -86 177.5 -66 8.5 -66"/><text x="71.809" y="-72.8" font-family="Times,serif" font-size="14" text-anchor="start">alt:</text><text x="93.191" y="-72.8" fill="#d3d3d3" font-family="Times,serif" font-size="14" text-anchor="start">0x0</text><polygon fill="none" stroke="#000" points="8.5 -46 8.5 -66 177.5 -66 177.5 -46 8.5 -46"/><text x="62.477" y="-51.8" font-family="Times,serif" font-size="14" text-anchor="start">alt_set: X1</text><polygon fill="#ff0" stroke="none" points="8.5 -26 8.5 -46 177.5 -46 177.5 -26 8.5 -26"/><polygon fill="none" stroke="#000" points="8.5 -26 8.5 -46 177.5 -46 177.5 -26 8.5 -26"/><text x="73.753" y="-31.8" font-family="Times,serif" font-size="14" text-anchor="start">val: 20</text></g><g id="edge1" class="edge"><title>node16:alt-&gt;node21:top</title><path fill="none" stroke="#000" d="M228.5,-96C210.097,-96 203.124,-96 188.651,-96"/><polygon fill="#000" stroke="#000" points="188.5 -92.5 178.5 -96 188.5 -99.5 188.5 -92.5"/></g><g id="node3" class="node"><title>node17</title><polygon fill="#000" stroke="none" points="450.5 -229 450.5 -249 619.5 -249 619.5 -229 450.5 -229"/><polygon fill="none" stroke="#000" points="450.5 -229 450.5 -249 619.5 -249 619.5 -229 450.5 -229"/><text x="453.16" y="-235.8" fill="#fff" font-family="Times,serif" font-size="14" font-weight="bold" text-anchor="start">(17) __primitive.value 3 l (0)</text><polygon fill="none" stroke="#000" points="450.5 -209 450.5 -229 619.5 -229 619.5 -209 450.5 -209"/><text x="513.809" y="-215.8" font-family="Times,serif" font-size="14" text-anchor="start">alt:</text><text x="535.191" y="-215.8" fill="#d3d3d3" font-family="Times,serif" font-size="14" text-anchor="start">0x0</text><polygon fill="none" stroke="#000" points="450.5 -189 450.5 -209 619.5 -209 619.5 -189 450.5 -189"/><text x="507.978" y="-194.8" font-family="Times,serif" font-size="14" text-anchor="start">alt_set: X</text><polygon fill="none" stroke="#000" points="450.5 -169 450.5 -189 619.5 -189 619.5 -169 450.5 -169"/><text x="485.422" y="-175.8" font-family="Times,serif" font-size="14" text-anchor="start">ptr:</text><text x="508.364" y="-175.8" fill="#d3d3d3" font-family="Times,serif" font-size="14" text-anchor="start">0x101b7a920</text><polygon fill="none" stroke="#000" points="450.5 -149 450.5 -169 619.5 -169 619.5 -149 450.5 -149"/><text x="485.815" y="-155.8" font-family="Times,serif" font-size="14" text-anchor="start">ptr:</text><text x="508.757" y="-155.8" fill="#d3d3d3" font-family="Times,serif" font-size="14" text-anchor="start">0x101b7a8a0</text></g><g id="edge4" class="edge"><title>node17:ptr0-&gt;node16:top</title><path fill="none" stroke="#000" d="M449.5,-159C424.083,-159 427.189,-126.663 409.349,-118.074"/><polygon fill="#000" stroke="#000" points="410.007 -114.636 399.5 -116 408.564 -121.486 410.007 -114.636"/></g><g id="node4" class="node"><title>node18</title><polygon fill="#000" stroke="none" points="229.5 -212 229.5 -232 398.5 -232 398.5 -212 229.5 -212"/><polygon fill="none" stroke="#000" points="229.5 -212 229.5 -232 398.5 -232 398.5 -212 229.5 -212"/><text x="232.16" y="-218.8" fill="#fff" font-family="Times,serif" font-size="14" font-weight="bold" text-anchor="start">(18) __primitive.value 2 i (0)</text><polygon fill="none" stroke="#000" points="229.5 -192 229.5 -212 398.5 -212 398.5 -192 229.5 -192"/><text x="265.202" y="-198.8" font-family="Times,serif" font-size="14" text-anchor="start">alt:</text><text x="286.584" y="-198.8" fill="#d3d3d3" font-family="Times,serif" font-size="14" text-anchor="start">0x101b7a960</text><polygon fill="none" stroke="#000" points="229.5 -172 229.5 -192 398.5 -192 398.5 -172 229.5 -172"/><text x="283.478" y="-177.8" font-family="Times,serif" font-size="14" text-anchor="start">alt_set: X0</text><polygon fill="#ff0" stroke="none" points="229.5 -152 229.5 -172 398.5 -172 398.5 -152 229.5 -152"/><polygon fill="none" stroke="#000" points="229.5 -152 229.5 -172 398.5 -172 398.5 -152 229.5 -152"/><text x="298.253" y="-157.8" font-family="Times,serif" font-size="14" text-anchor="start">val: 1</text></g><g id="edge2" class="edge"><title>node17:ptr1-&gt;node18:top</title><path fill="none" stroke="#000" d="M449.5,-179C424.083,-179 427.189,-211.337 409.349,-219.926"/><polygon fill="#000" stroke="#000" points="408.564 -216.514 399.5 -222 410.007 -223.364 408.564 -216.514"/></g><g id="node5" class="node"><title>node19</title><polygon fill="#000" stroke="none" points="8.5 -192 8.5 -212 177.5 -212 177.5 -192 8.5 -192"/><polygon fill="none" stroke="#000" points="8.5 -192 8.5 -212 177.5 -212 177.5 -192 8.5 -192"/><text x="11.16" y="-198.8" fill="#fff" font-family="Times,serif" font-size="14" font-weight="bold" text-anchor="start">(19) __primitive.value 2 i (0)</text><polygon fill="none" stroke="#000" points="8.5 -172 8.5 -192 177.5 -192 177.5 -172 8.5 -172"/><text x="71.809" y="-178.8" font-family="Times,serif" font-size="14" text-anchor="start">alt:</text><text x="93.191" y="-178.8" fill="#d3d3d3" font-family="Times,serif" font-size="14" text-anchor="start">0x0</text><polygon fill="none" stroke="#000" points="8.5 -152 8.5 -172 177.5 -172 177.5 -152 8.5 -152"/><text x="62.477" y="-157.8" font-family="Times,serif" font-size="14" text-anchor="start">alt_set: X1</text><polygon fill="#ff0" stroke="none" points="8.5 -132 8.5 -152 177.5 -152 177.5 -132 8.5 -132"/><polygon fill="none" stroke="#000" points="8.5 -132 8.5 -152 177.5 -152 177.5 -132 8.5 -132"/><text x="77.253" y="-137.8" font-family="Times,serif" font-size="14" text-anchor="start">val: 2</text></g><g id="edge3" class="edge"><title>node18:alt-&gt;node19:top</title><path fill="none" stroke="#000" d="M228.5,-202C210.097,-202 203.124,-202 188.651,-202"/><polygon fill="#000" stroke="#000" points="188.5 -198.5 178.5 -202 188.5 -205.5 188.5 -198.5"/></g></g></svg>