<svg xmlns="http://www.w3.org/2000/svg" xmlns:xlink="http://www.w3.org/1999/xlink" width="1132" height="281pt" viewBox="0 0 849 281"><g id="graph0" class="graph" transform="scale(1 1) rotate(0) translate(4 277)"><title>g</title><polygon fill="#fff" stroke="none" points="-4 4 -4 -277 845 -277 845 4 -4 4"/><text x="809.478" y="-6.8" font-family="Times,serif" font-size="14" text-anchor="middle">cells.dot</text><g id="node1" class="node"><title>node9</title><polygon fill="#000" stroke="none" points="11.5 -195 11.5 -215 173.5 -215 173.5 -195 11.5 -195"/><polygon fill="none" stroke="#000" points="11.5 -195 11.5 -215 173.5 -215 173.5 -195 11.5 -195"/><text x="14.16" y="-201.8" fill="#fff" font-family="Times,serif" font-size="14" font-weight="bold" text-anchor="start">(9) __primitive.value 2 i (0)</text><polygon fill="none" stroke="#000" points="11.5 -175 11.5 -195 173.5 -195 173.5 -175 11.5 -175"/><text x="71.309" y="-181.8" font-family="Times,serif" font-size="14" text-anchor="start">alt:</text><text x="92.691" y="-181.8" fill="#d3d3d3" font-family="Times,serif" font-size="14" text-anchor="start">0x0</text><polygon fill="none" stroke="#000" points="11.5 -155 11.5 -175 173.5 -175 173.5 -155 11.5 -155"/><text x="65.478" y="-160.8" font-family="Times,serif" font-size="14" text-anchor="start">alt_set: X</text><polygon fill="#ff0" stroke="none" points="11.5 -135 11.5 -155 173.5 -155 173.5 -135 11.5 -135"/><polygon fill="none" stroke="#000" points="11.5 -135 11.5 -155 173.5 -155 173.5 -135 11.5 -135"/><text x="76.753" y="-140.8" font-family="Times,serif" font-size="14" text-anchor="start">val: 1</text></g><g id="node2" class="node"><title>node10</title><polygon fill="#000" stroke="none" points="8.5 -89 8.5 -109 177.5 -109 177.5 -89 8.5 -89"/><polygon fill="none" stroke="#000" points="8.5 -89 8.5 -109 177.5 -109 177.5 -89 8.5 -89"/><text x="11.16" y="-95.8" fill="#fff" font-family="Times,serif" font-size="14" font-weight="bold" text-anchor="start">(10) __primitive.value 2 i (0)</text><polygon fill="none" stroke="#000" points="8.5 -69 8.5 -89 177.5 -89 177.5 -69 8.5 -69"/><text x="71.809" y="-75.8" font-family="Times,serif" font-size="14" text-anchor="start">alt:</text><text x="93.191" y="-75.8" fill="#d3d3d3" font-family="Times,serif" font-size="14" text-anchor="start">0x0</text><polygon fill="none" stroke="#000" points="8.5 -49 8.5 -69 177.5 -69 177.5 -49 8.5 -49"/><text x="65.978" y="-54.8" font-family="Times,serif" font-size="14" text-anchor="start">alt_set: X</text><polygon fill="#ff0" stroke="none" points="8.5 -29 8.5 -49 177.5 -49 177.5 -29 8.5 -29"/><polygon fill="none" stroke="#000" points="8.5 -29 8.5 -49 177.5 -49 177.5 -29 8.5 -29"/><text x="77.253" y="-34.8" font-family="Times,serif" font-size="14" text-anchor="start">val: 2</text></g><g id="node3" class="node"><title>node11</title><polygon fill="#000" stroke="none" points="236.5 -192 236.5 -212 391.5 -212 391.5 -192 236.5 -192"/><polygon fill="none" stroke="#000" points="236.5 -192 236.5 -212 391.5 -212 391.5 -192 236.5 -192"/><text x="239.023" y="-198.8" fill="#fff" font-family="Times,serif" font-size="14" font-weight="bold" text-anchor="start">(11) __primitive.alt 2 0 (0)</text><polygon fill="none" stroke="#000" points="236.5 -172 236.5 -192 391.5 -192 391.5 -172 236.5 -172"/><text x="292.809" y="-178.8" font-family="Times,serif" font-size="14" text-anchor="start">alt:</text><text x="314.191" y="-178.8" fill="#d3d3d3" font-family="Times,serif" font-size="14" text-anchor="start">0x0</text><polygon fill="none" stroke="#000" points="236.5 -152 236.5 -172 391.5 -172 391.5 -152 236.5 -152"/><text x="277.062" y="-157.8" fill="#d3d3d3" font-family="Times,serif" font-size="14" text-anchor="start">0x10755f6e0</text><polygon fill="none" stroke="#000" points="236.5 -132 236.5 -152 391.5 -152 391.5 -132 236.5 -132"/><text x="276.669" y="-137.8" fill="#d3d3d3" font-family="Times,serif" font-size="14" text-anchor="start">0x10755f720</text></g><g id="edge1" class="edge"><title>node11:arg0-&gt;node9:top</title><path fill="none" stroke="#000" d="M235.5,-162C206.088,-162 206.954,-195.81 184.402,-203.47"/><polygon fill="#000" stroke="#000" points="183.848 -200.014 174.5 -205 184.917 -206.931 183.848 -200.014"/></g><g id="edge2" class="edge"><title>node11:arg1-&gt;node10:top</title><path fill="none" stroke="#000" d="M235.5,-142C207.609,-142 209.227,-108.784 188.483,-100.739"/><polygon fill="#000" stroke="#000" points="188.952 -97.268 178.5 -99 187.751 -104.164 188.952 -97.268"/></g><g id="node4" class="node"><title>node12</title><polygon fill="#000" stroke="none" points="229.5 -86 229.5 -106 398.5 -106 398.5 -86 229.5 -86"/><polygon fill="none" stroke="#000" points="229.5 -86 229.5 -106 398.5 -106 398.5 -86 229.5 -86"/><text x="232.16" y="-92.8" fill="#fff" font-family="Times,serif" font-size="14" font-weight="bold" text-anchor="start">(12) __primitive.value 2 i (0)</text><polygon fill="none" stroke="#000" points="229.5 -66 229.5 -86 398.5 -86 398.5 -66 229.5 -66"/><text x="292.809" y="-72.8" font-family="Times,serif" font-size="14" text-anchor="start">alt:</text><text x="314.191" y="-72.8" fill="#d3d3d3" font-family="Times,serif" font-size="14" text-anchor="start">0x0</text><polygon fill="none" stroke="#000" points="229.5 -46 229.5 -66 398.5 -66 398.5 -46 229.5 -46"/><text x="286.978" y="-51.8" font-family="Times,serif" font-size="14" text-anchor="start">alt_set: X</text><polygon fill="#ff0" stroke="none" points="229.5 -26 229.5 -46 398.5 -46 398.5 -26 229.5 -26"/><polygon fill="none" stroke="#000" points="229.5 -26 229.5 -46 398.5 -46 398.5 -26 229.5 -26"/><text x="298.253" y="-31.8" font-family="Times,serif" font-size="14" text-anchor="start">val: 3</text></g><g id="node5" class="node"><title>node13</title><polygon fill="#000" stroke="none" points="450 -189 450 -209 612 -209 612 -189 450 -189"/><polygon fill="none" stroke="#000" points="450 -189 450 -209 612 -209 612 -189 450 -189"/><text x="452.657" y="-195.8" fill="#fff" font-family="Times,serif" font-size="14" font-weight="bold" text-anchor="start">(13) __primitive.add 2 0 (0)</text><polygon fill="none" stroke="#000" points="450 -169 450 -189 612 -189 612 -169 450 -169"/><text x="509.809" y="-175.8" font-family="Times,serif" font-size="14" text-anchor="start">alt:</text><text x="531.191" y="-175.8" fill="#d3d3d3" font-family="Times,serif" font-size="14" text-anchor="start">0x0</text><polygon fill="none" stroke="#000" points="450 -149 450 -169 612 -169 612 -149 450 -149"/><text x="493.669" y="-154.8" fill="#d3d3d3" font-family="Times,serif" font-size="14" text-anchor="start">0x10755f760</text><polygon fill="none" stroke="#000" points="450 -129 450 -149 612 -149 612 -129 450 -129"/><text x="494.062" y="-134.8" fill="#d3d3d3" font-family="Times,serif" font-size="14" text-anchor="start">0x10755f7a0</text></g><g id="edge3" class="edge"><title>node13:arg0-&gt;node11:top</title><path fill="none" stroke="#000" d="M449,-159C421.265,-159 423.015,-192.216 402.42,-200.261"/><polygon fill="#000" stroke="#000" points="401.745 -196.826 392.5 -202 402.954 -203.721 401.745 -196.826"/></g><g id="edge4" class="edge"><title>node13:arg1-&gt;node12:top</title><path fill="none" stroke="#000" d="M449,-139C423.956,-139 426.921,-107.243 409.755,-98.3119"/><polygon fill="#000" stroke="#000" points="410.025 -94.785 399.5 -96 408.485 -101.614 410.025 -94.785"/></g><g id="node6" class="node"><title>node14</title><polygon fill="#000" stroke="none" points="664.5 -249 664.5 -269 833.5 -269 833.5 -249 664.5 -249"/><polygon fill="none" stroke="#000" points="664.5 -249 664.5 -269 833.5 -269 833.5 -249 664.5 -249"/><text x="667.16" y="-255.8" fill="#fff" font-family="Times,serif" font-size="14" font-weight="bold" text-anchor="start">(14) __primitive.value 2 l (0)</text><polygon fill="none" stroke="#000" points="664.5 -229 664.5 -249 833.5 -249 833.5 -229 664.5 -229"/><text x="727.809" y="-235.8" font-family="Times,serif" font-size="14" text-anchor="start">alt:</text><text x="749.191" y="-235.8" fill="#d3d3d3" font-family="Times,serif" font-size="14" text-anchor="start">0x0</text><polygon fill="none" stroke="#000" points="664.5 -209 664.5 -229 833.5 -229 833.5 -209 664.5 -209"/><text x="721.978" y="-214.8" font-family="Times,serif" font-size="14" text-anchor="start">alt_set: X</text><polygon fill="none" stroke="#000" points="664.5 -189 664.5 -209 833.5 -209 833.5 -189 664.5 -189"/><text x="700.591" y="-195.8" font-family="Times,serif" font-size="14" text-anchor="start">ptr:</text><text x="723.533" y="-195.8" fill="#d3d3d3" font-family="Times,serif" font-size="14" text-anchor="start">0x10755f7e0</text></g><g id="edge5" class="edge"><title>node14:ptr0-&gt;node13:top</title><path fill="none" stroke="#000" d="M663.5,-199C644.913,-199 637.871,-199 623.252,-199"/><polygon fill="#000" stroke="#000" points="623 -195.5 613 -199 623 -202.5 623 -195.5"/></g></g></svg>