<svg xmlns="http://www.w3.org/2000/svg" xmlns:xlink="http://www.w3.org/1999/xlink" width="1416" height="283pt" viewBox="0 0 1062 283"><g id="graph0" class="graph" transform="scale(1 1) rotate(0) translate(4 279)"><title>g</title><polygon fill="#fff" stroke="none" points="-4 4 -4 -279 1058 -279 1058 4 -4 4"/><text x="1008.87" y="-6.8" font-family="Times,serif" font-size="14" text-anchor="middle">graph000.dot</text><g id="node1" class="node"><title>node10</title><polygon fill="#000" stroke="none" points="8.5 -136 8.5 -156 177.5 -156 177.5 -136 8.5 -136"/><polygon fill="none" stroke="#000" points="8.5 -136 8.5 -156 177.5 -156 177.5 -136 8.5 -136"/><text x="11.16" y="-142.8" fill="#fff" font-family="Times,serif" font-size="14" font-weight="bold" text-anchor="start">(10) __primitive.value 2 i (0)</text><polygon fill="none" stroke="#000" points="8.5 -116 8.5 -136 177.5 -136 177.5 -116 8.5 -116"/><text x="71.809" y="-122.8" font-family="Times,serif" font-size="14" text-anchor="start">alt:</text><text x="93.191" y="-122.8" fill="#d3d3d3" font-family="Times,serif" font-size="14" text-anchor="start">0x0</text><polygon fill="none" stroke="#000" points="8.5 -96 8.5 -116 177.5 -116 177.5 -96 8.5 -96"/><text x="65.978" y="-101.8" font-family="Times,serif" font-size="14" text-anchor="start">alt_set: X</text><polygon fill="#ff0" stroke="none" points="8.5 -76 8.5 -96 177.5 -96 177.5 -76 8.5 -76"/><polygon fill="none" stroke="#000" points="8.5 -76 8.5 -96 177.5 -96 177.5 -76 8.5 -76"/><text x="77.253" y="-81.8" font-family="Times,serif" font-size="14" text-anchor="start">val: 2</text></g><g id="node2" class="node"><title>node12</title><polygon fill="#000" stroke="none" points="438.5 -86 438.5 -106 607.5 -106 607.5 -86 438.5 -86"/><polygon fill="none" stroke="#000" points="438.5 -86 438.5 -106 607.5 -106 607.5 -86 438.5 -86"/><text x="441.16" y="-92.8" fill="#fff" font-family="Times,serif" font-size="14" font-weight="bold" text-anchor="start">(12) __primitive.value 2 i (0)</text><polygon fill="none" stroke="#000" points="438.5 -66 438.5 -86 607.5 -86 607.5 -66 438.5 -66"/><text x="501.809" y="-72.8" font-family="Times,serif" font-size="14" text-anchor="start">alt:</text><text x="523.191" y="-72.8" fill="#d3d3d3" font-family="Times,serif" font-size="14" text-anchor="start">0x0</text><polygon fill="none" stroke="#000" points="438.5 -46 438.5 -66 607.5 -66 607.5 -46 438.5 -46"/><text x="495.978" y="-51.8" font-family="Times,serif" font-size="14" text-anchor="start">alt_set: X</text><polygon fill="#ff0" stroke="none" points="438.5 -26 438.5 -46 607.5 -46 607.5 -26 438.5 -26"/><polygon fill="none" stroke="#000" points="438.5 -26 438.5 -46 607.5 -46 607.5 -26 438.5 -26"/><text x="507.253" y="-31.8" font-family="Times,serif" font-size="14" text-anchor="start">val: 3</text></g><g id="node3" class="node"><title>node13</title><polygon fill="#000" stroke="none" points="663 -191 663 -211 825 -211 825 -191 663 -191"/><polygon fill="none" stroke="#000" points="663 -191 663 -211 825 -211 825 -191 663 -191"/><text x="665.657" y="-197.8" fill="#fff" font-family="Times,serif" font-size="14" font-weight="bold" text-anchor="start">(13) __primitive.add 2 0 (0)</text><polygon fill="none" stroke="#000" points="663 -171 663 -191 825 -191 825 -171 663 -171"/><text x="722.809" y="-177.8" font-family="Times,serif" font-size="14" text-anchor="start">alt:</text><text x="744.191" y="-177.8" fill="#d3d3d3" font-family="Times,serif" font-size="14" text-anchor="start">0x0</text><polygon fill="none" stroke="#000" points="663 -151 663 -171 825 -171 825 -151 663 -151"/><text x="706.669" y="-156.8" fill="#d3d3d3" font-family="Times,serif" font-size="14" text-anchor="start">0x10755f860</text><polygon fill="none" stroke="#000" points="663 -131 663 -151 825 -151 825 -131 663 -131"/><text x="707.062" y="-136.8" fill="#d3d3d3" font-family="Times,serif" font-size="14" text-anchor="start">0x10755f7a0</text></g><g id="edge4" class="edge"><title>node13:arg1-&gt;node12:top</title><path fill="none" stroke="#000" d="M662,-141C634.813,-141 638.031,-106.547 618.445,-97.9336"/><polygon fill="#000" stroke="#000" points="618.984 -94.473 608.5 -96 617.648 -101.344 618.984 -94.473"/></g><g id="node4" class="node"><title>node15</title><polygon fill="#000" stroke="none" points="438.5 -196 438.5 -216 607.5 -216 607.5 -196 438.5 -196"/><polygon fill="none" stroke="#000" points="438.5 -196 438.5 -216 607.5 -216 607.5 -196 438.5 -196"/><text x="441.16" y="-202.8" fill="#fff" font-family="Times,serif" font-size="14" font-weight="bold" text-anchor="start">(15) __primitive.value 2 i (0)</text><polygon fill="none" stroke="#000" points="438.5 -176 438.5 -196 607.5 -196 607.5 -176 438.5 -176"/><text x="475.371" y="-182.8" font-family="Times,serif" font-size="14" text-anchor="start">alt:</text><text x="496.753" y="-182.8" fill="#d3d3d3" font-family="Times,serif" font-size="14" text-anchor="start">0x10755f8a0</text><polygon fill="none" stroke="#000" points="438.5 -156 438.5 -176 607.5 -176 607.5 -156 438.5 -156"/><text x="492.478" y="-161.8" font-family="Times,serif" font-size="14" text-anchor="start">alt_set: X0</text><polygon fill="#ff0" stroke="none" points="438.5 -136 438.5 -156 607.5 -156 607.5 -136 438.5 -136"/><polygon fill="none" stroke="#000" points="438.5 -136 438.5 -156 607.5 -156 607.5 -136 438.5 -136"/><text x="507.253" y="-141.8" font-family="Times,serif" font-size="14" text-anchor="start">val: 1</text><polygon fill="none" stroke="#000" stroke-width="4" points="436 -134 436 -218 609 -218 609 -134 436 -134"/></g><g id="edge1" class="edge"><title>node13:arg0-&gt;node15:top</title><path fill="none" stroke="#000" d="M662,-161C634.813,-161 638.031,-195.453 618.445,-204.066"/><polygon fill="#000" stroke="#000" points="617.648 -200.656 608.5 -206 618.984 -207.527 617.648 -200.656"/></g><g id="node5" class="node"><title>node16</title><polygon fill="#000" stroke="none" points="229.5 -176 229.5 -196 382.5 -196 382.5 -176 229.5 -176"/><polygon fill="none" stroke="#000" points="229.5 -176 229.5 -196 382.5 -196 382.5 -176 229.5 -176"/><text x="232.319" y="-182.8" fill="#fff" font-family="Times,serif" font-size="14" font-weight="bold" text-anchor="start">(16) __primitive.id 1 0 (0)</text><polygon fill="none" stroke="#000" points="229.5 -156 229.5 -176 382.5 -176 382.5 -156 229.5 -156"/><text x="284.809" y="-162.8" font-family="Times,serif" font-size="14" text-anchor="start">alt:</text><text x="306.191" y="-162.8" fill="#d3d3d3" font-family="Times,serif" font-size="14" text-anchor="start">0x0</text><polygon fill="none" stroke="#000" points="229.5 -136 229.5 -156 382.5 -156 382.5 -136 229.5 -136"/><text x="268.669" y="-141.8" fill="#d3d3d3" font-family="Times,serif" font-size="14" text-anchor="start">0x10755f720</text><polygon fill="none" stroke="#000" points="229.5 -116 229.5 -136 382.5 -136 382.5 -116 229.5 -116"/><text x="275.478" y="-121.8" font-family="Times,serif" font-size="14" text-anchor="start">alt_set: X1</text></g><g id="edge2" class="edge"><title>node15:alt-&gt;node16:top</title><path fill="none" stroke="#000" d="M437.5,-186C417.25,-186 409.814,-186 393.569,-186"/><polygon fill="#000" stroke="#000" points="393.5 -182.5 383.5 -186 393.5 -189.5 393.5 -182.5"/></g><g id="edge3" class="edge"><title>node16:arg0-&gt;node10:top</title><path fill="none" stroke="#000" d="M228.5,-146C210.097,-146 203.124,-146 188.651,-146"/><polygon fill="#000" stroke="#000" points="188.5 -142.5 178.5 -146 188.5 -149.5 188.5 -142.5"/></g><g id="node6" class="node"><title>node14</title><polygon fill="#000" stroke="none" points="877.5 -251 877.5 -271 1046.5 -271 1046.5 -251 877.5 -251"/><polygon fill="none" stroke="#000" points="877.5 -251 877.5 -271 1046.5 -271 1046.5 -251 877.5 -251"/><text x="880.16" y="-257.8" fill="#fff" font-family="Times,serif" font-size="14" font-weight="bold" text-anchor="start">(14) __primitive.value 2 l (0)</text><polygon fill="none" stroke="#000" points="877.5 -231 877.5 -251 1046.5 -251 1046.5 -231 877.5 -231"/><text x="940.809" y="-237.8" font-family="Times,serif" font-size="14" text-anchor="start">alt:</text><text x="962.191" y="-237.8" fill="#d3d3d3" font-family="Times,serif" font-size="14" text-anchor="start">0x0</text><polygon fill="none" stroke="#000" points="877.5 -211 877.5 -231 1046.5 -231 1046.5 -211 877.5 -211"/><text x="934.978" y="-216.8" font-family="Times,serif" font-size="14" text-anchor="start">alt_set: X</text><polygon fill="none" stroke="#000" points="877.5 -191 877.5 -211 1046.5 -211 1046.5 -191 877.5 -191"/><text x="913.591" y="-197.8" font-family="Times,serif" font-size="14" text-anchor="start">ptr:</text><text x="936.533" y="-197.8" fill="#d3d3d3" font-family="Times,serif" font-size="14" text-anchor="start">0x10755f7e0</text></g><g id="edge5" class="edge"><title>node14:ptr0-&gt;node13:top</title><path fill="none" stroke="#000" d="M876.5,-201C857.913,-201 850.871,-201 836.252,-201"/><polygon fill="#000" stroke="#000" points="836 -197.5 826 -201 836 -204.5 836 -197.5"/></g></g></svg>