<svg xmlns="http://www.w3.org/2000/svg" xmlns:xlink="http://www.w3.org/1999/xlink" width="635pt" height="264" viewBox="0 0 635 198"><g id="graph0" class="graph" transform="scale(1 1) rotate(0) translate(4 194)"><title>g</title><polygon fill="#fff" stroke="none" points="-4 4 -4 -194 631 -194 631 4 -4 4"/><text x="586.153" y="-6.8" font-family="Times,serif" font-size="14" text-anchor="middle">reduced.dot</text><g id="node1" class="node"><title>node13</title><polygon fill="#000" stroke="none" points="229.5 -106 229.5 -126 398.5 -126 398.5 -106 229.5 -106"/><polygon fill="none" stroke="#000" points="229.5 -106 229.5 -126 398.5 -126 398.5 -106 229.5 -106"/><text x="232.16" y="-112.8" fill="#fff" font-family="Times,serif" font-size="14" font-weight="bold" text-anchor="start">(13) __primitive.value 2 i (0)</text><polygon fill="none" stroke="#000" points="229.5 -86 229.5 -106 398.5 -106 398.5 -86 229.5 -86"/><text x="265.978" y="-92.8" font-family="Times,serif" font-size="14" text-anchor="start">alt:</text><text x="287.36" y="-92.8" fill="#d3d3d3" font-family="Times,serif" font-size="14" text-anchor="start">0x10755f920</text><polygon fill="none" stroke="#000" points="229.5 -66 229.5 -86 398.5 -86 398.5 -66 229.5 -66"/><text x="283.478" y="-71.8" font-family="Times,serif" font-size="14" text-anchor="start">alt_set: X0</text><polygon fill="#ff0" stroke="none" points="229.5 -46 229.5 -66 398.5 -66 398.5 -46 229.5 -46"/><polygon fill="none" stroke="#000" points="229.5 -46 229.5 -66 398.5 -66 398.5 -46 229.5 -46"/><text x="298.253" y="-51.8" font-family="Times,serif" font-size="14" text-anchor="start">val: 4</text></g><g id="node2" class="node"><title>node18</title><polygon fill="#000" stroke="none" points="8.5 -86 8.5 -106 177.5 -106 177.5 -86 8.5 -86"/><polygon fill="none" stroke="#000" points="8.5 -86 8.5 -106 177.5 -106 177.5 -86 8.5 -86"/><text x="11.16" y="-92.8" fill="#fff" font-family="Times,serif" font-size="14" font-weight="bold" text-anchor="start">(18) __primitive.value 2 i (0)</text><polygon fill="none" stroke="#000" points="8.5 -66 8.5 -86 177.5 -86 177.5 -66 8.5 -66"/><text x="71.809" y="-72.8" font-family="Times,serif" font-size="14" text-anchor="start">alt:</text><text x="93.191" y="-72.8" fill="#d3d3d3" font-family="Times,serif" font-size="14" text-anchor="start">0x0</text><polygon fill="none" stroke="#000" points="8.5 -46 8.5 -66 177.5 -66 177.5 -46 8.5 -46"/><text x="62.477" y="-51.8" font-family="Times,serif" font-size="14" text-anchor="start">alt_set: X1</text><polygon fill="#ff0" stroke="none" points="8.5 -26 8.5 -46 177.5 -46 177.5 -26 8.5 -26"/><polygon fill="none" stroke="#000" points="8.5 -26 8.5 -46 177.5 -46 177.5 -26 8.5 -26"/><text x="77.253" y="-31.8" font-family="Times,serif" font-size="14" text-anchor="start">val: 5</text></g><g id="edge1" class="edge"><title>node13:alt-&gt;node18:top</title><path fill="none" stroke="#000" d="M228.5,-96C210.097,-96 203.124,-96 188.651,-96"/><polygon fill="#000" stroke="#000" points="188.5 -92.5 178.5 -96 188.5 -99.5 188.5 -92.5"/></g><g id="node3" class="node"><title>node14</title><polygon fill="#000" stroke="none" points="450.5 -166 450.5 -186 619.5 -186 619.5 -166 450.5 -166"/><polygon fill="none" stroke="#000" points="450.5 -166 450.5 -186 619.5 -186 619.5 -166 450.5 -166"/><text x="453.16" y="-172.8" fill="#fff" font-family="Times,serif" font-size="14" font-weight="bold" text-anchor="start">(14) __primitive.value 2 l (0)</text><polygon fill="none" stroke="#000" points="450.5 -146 450.5 -166 619.5 -166 619.5 -146 450.5 -146"/><text x="513.809" y="-152.8" font-family="Times,serif" font-size="14" text-anchor="start">alt:</text><text x="535.191" y="-152.8" fill="#d3d3d3" font-family="Times,serif" font-size="14" text-anchor="start">0x0</text><polygon fill="none" stroke="#000" points="450.5 -126 450.5 -146 619.5 -146 619.5 -126 450.5 -126"/><text x="507.978" y="-131.8" font-family="Times,serif" font-size="14" text-anchor="start">alt_set: X</text><polygon fill="none" stroke="#000" points="450.5 -106 450.5 -126 619.5 -126 619.5 -106 450.5 -106"/><text x="486.591" y="-112.8" font-family="Times,serif" font-size="14" text-anchor="start">ptr:</text><text x="509.533" y="-112.8" fill="#d3d3d3" font-family="Times,serif" font-size="14" text-anchor="start">0x10755f7e0</text></g><g id="edge2" class="edge"><title>node14:ptr0-&gt;node13:top</title><path fill="none" stroke="#000" d="M449.5,-116C431.097,-116 424.124,-116 409.651,-116"/><polygon fill="#000" stroke="#000" points="409.5 -112.5 399.5 -116 409.5 -119.5 409.5 -112.5"/></g></g></svg>