<svg xmlns="http://www.w3.org/2000/svg" xmlns:xlink="http://www.w3.org/1999/xlink" width="1460" height="588" viewBox="0 0 1095 441"><g id="graph0" class="graph" transform="scale(1 1) rotate(0) translate(4 437)"><title>g</title><polygon fill="#fff" stroke="none" points="-4 4 -4 -437 1091 -437 1091 4 -4 4"/><text x="1042.5" y="-7.8" font-family="Times,serif" font-size="14" text-anchor="middle">graph001.dot</text><g id="node1" class="node"><title>node18</title><polygon fill="#000" stroke="none" points="461 -408 461 -429 633 -429 633 -408 461 -408"/><polygon fill="none" stroke="#000" points="461 -408 461 -429 633 -429 633 -408 461 -408"/><text x="464" y="-415.8" fill="#fff" font-family="Times,serif" font-size="14" font-weight="bold" text-anchor="start">(18) __primitive.value 2 i (0)</text><polygon fill="none" stroke="#000" points="461 -387 461 -408 633 -408 633 -387 461 -387"/><text x="524" y="-394.8" font-family="Times,serif" font-size="14" text-anchor="start">alt:</text><text x="546" y="-394.8" fill="#d3d3d3" font-family="Times,serif" font-size="14" text-anchor="start">(nil)</text><polygon fill="none" stroke="#000" points="461 -366 461 -387 633 -387 633 -366 461 -366"/><text x="520.5" y="-372.8" font-family="Times,serif" font-size="14" text-anchor="start">alt_set: X</text><polygon fill="#ff0" stroke="none" points="461 -345 461 -366 633 -366 633 -345 461 -345"/><polygon fill="none" stroke="#000" points="461 -345 461 -366 633 -366 633 -345 461 -345"/><text x="531.5" y="-351.8" font-family="Times,serif" font-size="14" text-anchor="start">val: 2</text></g><g id="node2" class="node"><title>node22</title><polygon fill="#000" stroke="none" points="8.5 -236 8.5 -257 181.5 -257 181.5 -236 8.5 -236"/><polygon fill="none" stroke="#000" points="8.5 -236 8.5 -257 181.5 -257 181.5 -236 8.5 -236"/><text x="11.5" y="-243.8" fill="#fff" font-family="Times,serif" font-size="14" font-weight="bold" text-anchor="start">(22) __primitive.add* 2 0 (0)</text><polygon fill="none" stroke="#000" points="8.5 -215 8.5 -236 181.5 -236 181.5 -215 8.5 -215"/><text x="72" y="-222.8" font-family="Times,serif" font-size="14" text-anchor="start">alt:</text><text x="94" y="-222.8" fill="#d3d3d3" font-family="Times,serif" font-size="14" text-anchor="start">(nil)</text><polygon fill="none" stroke="#000" points="8.5 -194 8.5 -215 181.5 -215 181.5 -194 8.5 -194"/><text x="84.5" y="-200.8" fill="#d3d3d3" font-family="Times,serif" font-size="14" text-anchor="start">0x1</text><polygon fill="none" stroke="#000" points="8.5 -173 8.5 -194 181.5 -194 181.5 -173 8.5 -173"/><text x="83" y="-179.8" fill="#d3d3d3" font-family="Times,serif" font-size="14" text-anchor="start">(nil)</text></g><g id="node3" class="node"><title>node23</title><polygon fill="#000" stroke="none" points="8.5 -126 8.5 -147 180.5 -147 180.5 -126 8.5 -126"/><polygon fill="none" stroke="#000" points="8.5 -126 8.5 -147 180.5 -147 180.5 -126 8.5 -126"/><text x="11.5" y="-133.8" fill="#fff" font-family="Times,serif" font-size="14" font-weight="bold" text-anchor="start">(23) __primitive.value 2 i (0)</text><polygon fill="none" stroke="#000" points="8.5 -105 8.5 -126 180.5 -126 180.5 -105 8.5 -105"/><text x="71.5" y="-112.8" font-family="Times,serif" font-size="14" text-anchor="start">alt:</text><text x="93.5" y="-112.8" fill="#d3d3d3" font-family="Times,serif" font-size="14" text-anchor="start">(nil)</text><polygon fill="none" stroke="#000" points="8.5 -84 8.5 -105 180.5 -105 180.5 -84 8.5 -84"/><text x="68" y="-90.8" font-family="Times,serif" font-size="14" text-anchor="start">alt_set: X</text><polygon fill="#ff0" stroke="none" points="8.5 -63 8.5 -84 180.5 -84 180.5 -63 8.5 -63"/><polygon fill="none" stroke="#000" points="8.5 -63 8.5 -84 180.5 -84 180.5 -63 8.5 -63"/><text x="79" y="-69.8" font-family="Times,serif" font-size="14" text-anchor="start">val: 1</text></g><g id="node4" class="node"><title>node24</title><polygon fill="#000" stroke="none" points="233 -255 233 -276 405 -276 405 -255 233 -255"/><polygon fill="none" stroke="#000" points="233 -255 233 -276 405 -276 405 -255 233 -255"/><text x="236" y="-262.8" fill="#fff" font-family="Times,serif" font-size="14" font-weight="bold" text-anchor="start">(24) __primitive.value 3 l (0)</text><polygon fill="none" stroke="#000" points="233 -234 233 -255 405 -255 405 -234 233 -234"/><text x="296" y="-241.8" font-family="Times,serif" font-size="14" text-anchor="start">alt:</text><text x="318" y="-241.8" fill="#d3d3d3" font-family="Times,serif" font-size="14" text-anchor="start">(nil)</text><polygon fill="none" stroke="#000" points="233 -213 233 -234 405 -234 405 -213 233 -213"/><text x="292.5" y="-219.8" font-family="Times,serif" font-size="14" text-anchor="start">alt_set: X</text><polygon fill="none" stroke="#000" points="233 -192 233 -213 405 -213 405 -192 233 -192"/><text x="281" y="-199.8" font-family="Times,serif" font-size="14" text-anchor="start">ptr:</text><text x="304" y="-199.8" fill="#d3d3d3" font-family="Times,serif" font-size="14" text-anchor="start">0x62ac40</text><polygon fill="none" stroke="#000" points="233 -171 233 -192 405 -192 405 -171 233 -171"/><text x="281" y="-178.8" font-family="Times,serif" font-size="14" text-anchor="start">ptr:</text><text x="304" y="-178.8" fill="#d3d3d3" font-family="Times,serif" font-size="14" text-anchor="start">0x62ac80</text></g><g id="edge1" class="edge"><title>node24:ptr1-&gt;node22:top</title><path fill="none" stroke="#000" d="M232,-202C206.217,-202 210.286,-235.841 192.432,-244.83"/><polygon fill="#000" stroke="#000" points="191.522 -241.446 182.5 -247 193.017 -248.284 191.522 -241.446"/></g><g id="edge2" class="edge"><title>node24:ptr0-&gt;node23:top</title><path fill="none" stroke="#000" d="M232,-181C206.185,-181 209.553,-147.911 191.489,-139.122"/><polygon fill="#000" stroke="#000" points="192.009 -135.655 181.5 -137 190.554 -142.502 192.009 -135.655"/></g><g id="node5" class="node"><title>node27</title><polygon fill="#000" stroke="none" points="690.5 -173 690.5 -194 846.5 -194 846.5 -173 690.5 -173"/><polygon fill="none" stroke="#000" points="690.5 -173 690.5 -194 846.5 -194 846.5 -173 690.5 -173"/><text x="693.5" y="-180.8" fill="#fff" font-family="Times,serif" font-size="14" font-weight="bold" text-anchor="start">(27) __primitive.id 1 0 (0)</text><polygon fill="none" stroke="#000" points="690.5 -152 690.5 -173 846.5 -173 846.5 -152 690.5 -152"/><text x="732" y="-159.8" font-family="Times,serif" font-size="14" text-anchor="start">alt:</text><text x="754" y="-159.8" fill="#d3d3d3" font-family="Times,serif" font-size="14" text-anchor="start">0x62afc0</text><polygon fill="none" stroke="#000" points="690.5 -131 690.5 -152 846.5 -152 846.5 -131 690.5 -131"/><text x="741" y="-137.8" fill="#d3d3d3" font-family="Times,serif" font-size="14" text-anchor="start">0x62b000</text><polygon fill="none" stroke="#000" points="690.5 -110 690.5 -131 846.5 -131 846.5 -110 690.5 -110"/><text x="738.5" y="-116.8" font-family="Times,serif" font-size="14" text-anchor="start">alt_set: X0</text></g><g id="node6" class="node"><title>node36</title><polygon fill="#000" stroke="none" points="464 -187 464 -208 630 -208 630 -187 464 -187"/><polygon fill="none" stroke="#000" points="464 -187 464 -208 630 -208 630 -187 464 -187"/><text x="467" y="-194.8" fill="#fff" font-family="Times,serif" font-size="14" font-weight="bold" text-anchor="start">(36) __primitive.dep 1 0 (0)</text><polygon fill="none" stroke="#000" points="464 -166 464 -187 630 -187 630 -166 464 -166"/><text x="524" y="-173.8" font-family="Times,serif" font-size="14" text-anchor="start">alt:</text><text x="546" y="-173.8" fill="#d3d3d3" font-family="Times,serif" font-size="14" text-anchor="start">(nil)</text><polygon fill="none" stroke="#000" points="464 -145 464 -166 630 -166 630 -145 464 -145"/><text x="521" y="-151.8" fill="#d3d3d3" font-family="Times,serif" font-size="14" text-anchor="start">0x62af80</text></g><g id="edge3" class="edge"><title>node27:alt-&gt;node36:top</title><path fill="none" stroke="#000" d="M689.5,-163C662.989,-163 661.28,-189.797 640.97,-196.496"/><polygon fill="#000" stroke="#000" points="640.366 -193.047 631 -198 641.41 -199.969 640.366 -193.047"/></g><g id="node9" class="node"><title>node37</title><polygon fill="#000" stroke="none" points="461 -94 461 -115 633 -115 633 -94 461 -94"/><polygon fill="none" stroke="#000" points="461 -94 461 -115 633 -115 633 -94 461 -94"/><text x="464" y="-101.8" fill="#fff" font-family="Times,serif" font-size="14" font-weight="bold" text-anchor="start">(37) __primitive.value 2 i (0)</text><polygon fill="none" stroke="#000" points="461 -73 461 -94 633 -94 633 -73 461 -73"/><text x="524" y="-80.8" font-family="Times,serif" font-size="14" text-anchor="start">alt:</text><text x="546" y="-80.8" fill="#d3d3d3" font-family="Times,serif" font-size="14" text-anchor="start">(nil)</text><polygon fill="none" stroke="#000" points="461 -52 461 -73 633 -73 633 -52 461 -52"/><text x="520.5" y="-58.8" font-family="Times,serif" font-size="14" text-anchor="start">alt_set: X</text><polygon fill="#ff0" stroke="none" points="461 -31 461 -52 633 -52 633 -31 461 -31"/><polygon fill="none" stroke="#000" points="461 -31 461 -52 633 -52 633 -31 461 -31"/><text x="531.5" y="-37.8" font-family="Times,serif" font-size="14" text-anchor="start">val: 5</text><polygon fill="none" stroke="#000" stroke-width="4" points="459 -29 459 -117 635 -117 635 -29 459 -29"/></g><g id="edge9" class="edge"><title>node27:arg0-&gt;node37:top</title><path fill="none" stroke="#000" d="M689.5,-141C663.889,-141 663.093,-113.683 643.88,-106.64"/><polygon fill="#000" stroke="#000" points="644.438 -103.185 634 -105 643.292 -110.091 644.438 -103.185"/></g><g id="node7" class="node"><title>node35</title><polygon fill="#000" stroke="none" points="689.5 -306 689.5 -327 848.5 -327 848.5 -306 689.5 -306"/><polygon fill="none" stroke="#000" points="689.5 -306 689.5 -327 848.5 -327 848.5 -306 689.5 -306"/><text x="692.5" y="-313.8" fill="#fff" font-family="Times,serif" font-size="14" font-weight="bold" text-anchor="start">(35) __primitive.ap 3 1 (0)</text><polygon fill="none" stroke="#000" points="689.5 -285 689.5 -306 848.5 -306 848.5 -285 689.5 -285"/><text x="746" y="-292.8" font-family="Times,serif" font-size="14" text-anchor="start">alt:</text><text x="768" y="-292.8" fill="#d3d3d3" font-family="Times,serif" font-size="14" text-anchor="start">(nil)</text><polygon fill="none" stroke="#000" points="689.5 -264 689.5 -285 848.5 -285 848.5 -264 689.5 -264"/><text x="742" y="-270.8" fill="#d3d3d3" font-family="Times,serif" font-size="14" text-anchor="start">0x62ab40</text><polygon fill="none" stroke="#000" points="689.5 -243 689.5 -264 848.5 -264 848.5 -243 689.5 -243"/><text x="743" y="-249.8" fill="#d3d3d3" font-family="Times,serif" font-size="14" text-anchor="start">0x62af00</text><polygon fill="none" stroke="#000" points="689.5 -222 689.5 -243 848.5 -243 848.5 -222 689.5 -222"/><text x="743.5" y="-228.8" fill="#d3d3d3" font-family="Times,serif" font-size="14" text-anchor="start">0x62afc0</text></g><g id="edge4" class="edge"><title>node36:arg0-&gt;node35:top</title><path fill="none" stroke="#000" d="M631,-155C703.67,-155 620.997,-301.566 678.497,-315.879"/><polygon fill="#000" stroke="#000" points="678.172 -319.364 688.5 -317 678.952 -312.408 678.172 -319.364"/></g><g id="edge5" class="edge"><title>node35:arg0-&gt;node18:top</title><path fill="none" stroke="#000" d="M688.5,-274C623.419,-274 694.202,-403.574 643.981,-417.746"/><polygon fill="#000" stroke="#000" points="643.486 -414.281 634 -419 644.358 -421.226 643.486 -414.281"/></g><g id="edge8" class="edge"><title>node35:arg2-&gt;node36:top</title><path fill="none" stroke="#d3d3d3" d="M688.5,-232C662.638,-232 660.729,-206.201 641.043,-199.549"/><polygon fill="#d3d3d3" stroke="#d3d3d3" points="641.417 -196.066 631 -198 640.349 -202.984 641.417 -196.066"/></g><g id="node8" class="node"><title>node33</title><polygon fill="#000" stroke="none" points="469 -298 469 -319 625 -319 625 -298 469 -298"/><polygon fill="none" stroke="#000" points="469 -298 469 -319 625 -319 625 -298 469 -298"/><text x="472" y="-305.8" fill="#fff" font-family="Times,serif" font-size="14" font-weight="bold" text-anchor="start">(33) __primitive.id 1 0 (0)</text><polygon fill="none" stroke="#000" points="469 -277 469 -298 625 -298 625 -277 469 -277"/><text x="524" y="-284.8" font-family="Times,serif" font-size="14" text-anchor="start">alt:</text><text x="546" y="-284.8" fill="#d3d3d3" font-family="Times,serif" font-size="14" text-anchor="start">(nil)</text><polygon fill="none" stroke="#000" points="469 -256 469 -277 625 -277 625 -256 469 -256"/><text x="521" y="-262.8" fill="#d3d3d3" font-family="Times,serif" font-size="14" text-anchor="start">0x62acc0</text><polygon fill="none" stroke="#000" points="469 -235 469 -256 625 -256 625 -235 469 -235"/><text x="517" y="-241.8" font-family="Times,serif" font-size="14" text-anchor="start">alt_set: X1</text></g><g id="edge6" class="edge"><title>node35:arg1-&gt;node33:top</title><path fill="none" stroke="#000" d="M688.5,-253C654.991,-253 661.35,-298.203 635.939,-307.384"/><polygon fill="#000" stroke="#000" points="635.309 -303.941 626 -309 636.432 -310.85 635.309 -303.941"/></g><g id="edge7" class="edge"><title>node33:arg0-&gt;node24:top</title><path fill="none" stroke="#000" d="M468,-266C444.212,-266 435.826,-266 416.249,-266"/><polygon fill="#000" stroke="#000" points="416 -262.5 406 -266 416 -269.5 416 -262.5"/></g><g id="node10" class="node"><title>node31</title><polygon fill="#000" stroke="none" points="900.5 -237 900.5 -258 1079.5 -258 1079.5 -237 900.5 -237"/><polygon fill="none" stroke="#000" points="900.5 -237 900.5 -258 1079.5 -258 1079.5 -237 900.5 -237"/><text x="903.5" y="-244.8" fill="#fff" font-family="Times,serif" font-size="14" font-weight="bold" text-anchor="start">(31) __primitive.value 2 l (0*)</text><polygon fill="none" stroke="#000" points="900.5 -216 900.5 -237 1079.5 -237 1079.5 -216 900.5 -216"/><text x="967" y="-223.8" font-family="Times,serif" font-size="14" text-anchor="start">alt:</text><text x="989" y="-223.8" fill="#d3d3d3" font-family="Times,serif" font-size="14" text-anchor="start">(nil)</text><polygon fill="none" stroke="#000" points="900.5 -195 900.5 -216 1079.5 -216 1079.5 -195 900.5 -195"/><text x="963.5" y="-201.8" font-family="Times,serif" font-size="14" text-anchor="start">alt_set: X</text><polygon fill="none" stroke="#000" points="900.5 -174 900.5 -195 1079.5 -195 1079.5 -174 900.5 -174"/><text x="951.5" y="-181.8" font-family="Times,serif" font-size="14" text-anchor="start">ptr:</text><text x="974.5" y="-181.8" fill="#d3d3d3" font-family="Times,serif" font-size="14" text-anchor="start">0x62ad80</text></g><g id="edge10" class="edge"><title>node31:ptr0-&gt;node27:top</title><path fill="none" stroke="#000" d="M899.5,-184C880.181,-184 872.973,-184 857.628,-184"/><polygon fill="#000" stroke="#000" points="857.5 -180.5 847.5 -184 857.5 -187.5 857.5 -180.5"/></g></g></svg>